PathFileType	4	(X/Y/Z)	/Users/itak/Documents/Research/Walk-IL/dataset/trc/00027_00004.trc
DataRate	CameraRate	NumFrames	NumMarkers	Units	OrigDataRate	OrigDataStartFrame	OrigNumFrames
100.000000	100.000000	4	53	mm	100.000000	76	613
Frame#	Time	RPSI			LPSI			L3			STRN			T10			C7			CLAV			RBAK			LBAK			LSHO			LUPA			LAEL			LAOL			LWTS			LWPS			LFRA			LIFD			LHPS			LHTS			RSHO			RUPA			RAEL			RAOL			RWTS			RWPS			RFRA			RIFD			RHTS			RHPS			RBHD			LFHD			RFHD			LBHD			LHIP			RHIP			RASI			LASI			LKNE			LTHI			LANK			LTIP			LTOE			LMT1			LMT5			LHEE			RKNE			RTHI			RANK			RTIP			RTOE			RMT1			RMT5			RHEE			
		X1	Y1	Z1	X2	Y2	Z2	X3	Y3	Z3	X4	Y4	Z4	X5	Y5	Z5	X6	Y6	Z6	X7	Y7	Z7	X8	Y8	Z8	X9	Y9	Z9	X10	Y10	Z10	X11	Y11	Z11	X12	Y12	Z12	X13	Y13	Z13	X14	Y14	Z14	X15	Y15	Z15	X16	Y16	Z16	X17	Y17	Z17	X18	Y18	Z18	X19	Y19	Z19	X20	Y20	Z20	X21	Y21	Z21	X22	Y22	Z22	X23	Y23	Z23	X24	Y24	Z24	X25	Y25	Z25	X26	Y26	Z26	X27	Y27	Z27	X28	Y28	Z28	X29	Y29	Z29	X30	Y30	Z30	X31	Y31	Z31	X32	Y32	Z32	X33	Y33	Z33	X34	Y34	Z34	X35	Y35	Z35	X36	Y36	Z36	X37	Y37	Z37	X38	Y38	Z38	X39	Y39	Z39	X40	Y40	Z40	X41	Y41	Z41	X42	Y42	Z42	X43	Y43	Z43	X44	Y44	Z44	X45	Y45	Z45	X46	Y46	Z46	X47	Y47	Z47	X48	Y48	Z48	X49	Y49	Z49	X50	Y50	Z50	X51	Y51	Z51	X52	Y52	Z52	X53	Y53	Z53	

77	0.76	866.4521484375	1030.749755859375	611.2431030273438	708.2214965820312	1014.25146484375	567.45263671875	772.5620727539062	1081.976806640625	592.2389526367188	847.2529296875	1273.630737304688	380.6808776855469	753.1351928710938	1224.930297851562	614.0885009765625	750.9474487304688	1491.939819335938	556.4942626953125	822.3135375976562	1398.7578125	416.0675048828125	808.7656860351562	1359.601440429688	641.5220336914062	655.4595947265625	1446.298828125	535.7645874023438	628.0770874023438	1447.803955078125	412.2881469726562	544.8807983398438	1321.72705078125	418.3006591796875	516.9795532226562	1107.61865234375	427.2775268554688	581.4674072265625	1098.99755859375	513.07080078125	604.2190551757812	860.3197021484375	359.1763000488281	540.375244140625	841.4957885742188	417.8059387207031	516.2546997070312	992.0274047851562	413.7268981933594	633.7026977539062	678.5015869140625	330.6372680664062	553.4178466796875	753.9099731445312	382.5417175292969	599.8704223632812	768.5750732421875	330.4817504882812	940.8803100585938	1483.6806640625	556.794189453125	1002.068725585938	1420.123779296875	603.1585693359375	1030.581420898438	1160.280883789062	672.6568603515625	947.1405029296875	1121.075317382812	630.9249877929688	1089.58447265625	894.1785888671875	564.19384765625	1119.04736328125	891.4172973632812	652.0018310546875	1058.517211914062	1086.289428710938	674.7970581054688	1107.22412109375	707.9820556640625	565.7568359375	1130.447631835938	786.832275390625	552.4517211914062	1149.237548828125	791.8338623046875	625.8612060546875	713.8301391601562	1662.01904296875	507.74853515625	831.7449951171875	1685.320068359375	325.594482421875	734.1464233398438	1672.85107421875	327.9456176757812	856.7523193359375	1678.428955078125	498.8777770996094	631.8615112304688	907.8374633789062	450.1074523925781	1001.953186035156	930.4075927734375	519.443603515625	952.6130981445312	959.083251953125	406.1940002441406	723.9177856445312	954.6380615234375	350.9824829101562	694.5986938476562	461.0702514648438	491.5433959960938	654.8602905273438	603.6416015625	473.3590087890625	543.2141723632812	99.31554412841797	824.327392578125	592.9326171875	290.9445495605469	661.292724609375	751.0498657226562	33.17504501342773	789.9826049804688	712.2179565429688	61.75415420532227	819.7685546875	629.4630126953125	35.89430999755859	757.1209716796875	525.93798828125	162.1930084228516	884.995849609375	1019.829895019531	532.52197265625	347.2467651367188	1024.5771484375	782.7115478515625	449.4344177246094	1049.728759765625	34.14855194091797	376.819091796875	1034.573852539062	403.95556640625	339.4849853515625	1040.131103515625	41.33696365356445	142.341552734375	1001.962036132812	44.33702087402344	201.3285217285156	1093.68310546875	33.62184524536133	233.1982116699219	996.0617065429688	33.4459342956543	424.3244934082031	
78	0.77	872.857421875	1032.032104492188	600.744873046875	714.4727783203125	1014.955139160156	558.4486083984375	778.9191284179688	1082.685791015625	582.945068359375	851.5330200195312	1275.035278320312	370.9642944335938	760.4180297851562	1225.408081054688	605.4529418945312	757.72998046875	1492.8046875	549.2918090820312	827.100830078125	1400.014282226562	407.2263793945312	816.5922241210938	1359.918579101562	632.5725708007812	661.7833862304688	1447.137329101562	529.3959350585938	632.8382568359375	1449.078857421875	406.2903442382812	549.7931518554688	1322.909057617188	413.1826782226562	522.155029296875	1108.862670898438	422.995361328125	588.3082885742188	1100.650756835938	507.4471435546875	604.8961181640625	858.8123779296875	357.7969360351562	542.3724975585938	842.282470703125	418.4233093261719	520.025390625	993.0443725585938	411.2737121582031	630.820556640625	675.8590087890625	332.8734436035156	552.9973754882812	753.7915649414062	384.8365478515625	598.3853149414062	766.3885498046875	331.3988342285156	947.4544067382812	1484.568115234375	546.6676025390625	1009.419921875	1420.80908203125	591.77490234375	1038.966430664062	1160.344482421875	658.9935302734375	954.7263793945312	1121.531860351562	618.4197998046875	1095.8828125	894.935546875	547.69287109375	1126.702270507812	891.5369873046875	635.0149536132812	1066.74365234375	1086.299194335938	660.1537475585938	1113.037963867188	708.6475219726562	547.9119262695312	1136.178833007812	787.5204467773438	534.6525268554688	1156.189208984375	792.0470581054688	607.7774047851562	719.6141967773438	1663.34619140625	500.4574584960938	834.981201171875	1685.885498046875	316.6118774414062	737.4488525390625	1673.307983398438	320.3523254394531	862.3961791992188	1679.985107421875	489.6224060058594	637.3893432617188	907.807861328125	441.5744018554688	1008.081726074219	932.4515380859375	508.0825500488281	957.6237182617188	960.5372924804688	395.0374755859375	728.5462646484375	955.44580078125	341.9738159179688	701.24267578125	459.3399353027344	475.2695922851562	661.49951171875	602.7801513671875	460.4787902832031	547.4403686523438	107.3041381835938	819.472900390625	598.8370971679688	294.1561889648438	650.1956787109375	752.1023559570312	33.2218017578125	788.1514892578125	714.3720703125	64.46781158447266	816.5235595703125	630.9082641601562	36.88995361328125	756.0572509765625	532.3638916015625	173.7525939941406	876.788818359375	1024.598754882812	532.5211791992188	338.65283203125	1030.228149414062	784.1033325195312	438.638427734375	1050.610107421875	33.9189453125	376.5382690429688	1038.432006835938	403.4986572265625	332.5920104980469	1040.748168945312	38.54148101806641	141.6992492675781	1002.887390136719	43.39705657958984	200.8382415771484	1094.640869140625	32.2569580078125	232.8231506347656	997.0220947265625	33.98540496826172	424.0720825195312	
79	0.78	879.132568359375	1033.374755859375	590.4207153320312	720.6171264648438	1015.770324707031	549.7456665039062	785.1477661132812	1083.4873046875	573.8018188476562	855.5579833984375	1276.485107421875	361.3184204101562	767.4923706054688	1226.024291992188	596.809326171875	764.3594360351562	1493.793823242188	542.0492553710938	831.6685180664062	1401.357421875	398.3842468261719	824.2096557617188	1360.386474609375	623.6239013671875	667.9581909179688	1448.115356445312	523.0037841796875	637.4549560546875	1450.501953125	400.2969970703125	554.5418090820312	1324.2685546875	408.1211547851562	527.135009765625	1110.262573242188	418.820068359375	594.9696655273438	1102.455810546875	501.8804931640625	605.6964721679688	857.6619262695312	356.5936279296875	544.5283813476562	843.38037109375	419.1035766601562	523.7765502929688	994.2722778320312	408.9033203125	628.269775390625	673.6963500976562	335.4096984863281	552.8632202148438	754.0745239257812	387.2989196777344	597.1726684570312	764.6268310546875	332.54052734375	953.8436889648438	1485.541259765625	536.4926147460938	1016.571899414062	1421.577026367188	580.330322265625	1047.238525390625	1160.512451171875	645.1914672851562	962.205322265625	1122.085571289062	605.859130859375	1101.929077148438	895.8521118164062	530.9802856445312	1134.206176757812	891.8107299804688	617.741943359375	1074.838134765625	1086.425537109375	645.3238525390625	1118.54150390625	709.46826171875	529.829345703125	1141.630615234375	788.3682861328125	516.5977783203125	1162.930297851562	792.4190673828125	589.3751831054688	725.289306640625	1664.7607421875	493.1796875	838.0770263671875	1686.553100585938	307.6585388183594	740.623779296875	1673.865600585938	312.7916564941406	867.8951416015625	1681.621337890625	480.3622436523438	642.8434448242188	907.7986450195312	433.2124938964844	1014.034606933594	934.4829711914062	497.0045776367188	962.4821166992188	962.025634765625	384.1446228027344	733.0296020507812	956.3280639648438	333.1770629882812	708.0578002929688	457.7194519042969	458.2240600585938	668.1840209960938	601.9776611328125	447.1434936523438	552.289794921875	116.1526260375977	813.67919921875	605.2353515625	297.586669921875	638.1316528320312	753.312744140625	33.25030899047852	785.616943359375	716.998291015625	67.66875457763672	812.2940063476562	632.5328979492188	38.73833465576172	754.393798828125	539.6412963867188	185.8791809082031	867.4420776367188	1029.083862304688	532.377685546875	330.8094482421875	1035.818359375	785.330078125	428.4002990722656	1051.275024414062	33.70878219604492	376.4219665527344	1042.027099609375	403.008544921875	326.4104919433594	1041.287841796875	36.6087532043457	141.3147888183594	1003.701416015625	42.96665573120117	200.5387573242188	1095.450439453125	31.47726249694824	232.6479644775391	997.7872314453125	34.33192443847656	423.9092407226562	
80	0.79	885.2793579101562	1034.77685546875	580.3046875	726.6337280273438	1016.675720214844	541.3300170898438	791.2511596679688	1084.357421875	564.8179931640625	859.3218383789062	1277.947387695312	351.7713928222656	774.34912109375	1226.78662109375	588.178466796875	770.7953491210938	1494.875610351562	534.7127685546875	836.0144653320312	1402.762329101562	389.5436401367188	831.6004028320312	1361.020141601562	614.691650390625	673.9711303710938	1449.2216796875	516.5855102539062	641.9050903320312	1452.033081054688	394.3065185546875	559.11083984375	1325.765991210938	403.1333618164062	531.8754272460938	1111.779174804688	414.7703247070312	601.3696899414062	1104.365356445312	496.4307861328125	606.6366577148438	856.8621826171875	355.5408020019531	546.8350830078125	844.7427978515625	419.7973327636719	527.4681396484375	995.6646118164062	406.6176452636719	626.1605224609375	672.0165405273438	338.1539001464844	553.0692749023438	754.7177734375	389.8486938476562	596.2982788085938	763.2841796875	333.8446044921875	960.0445556640625	1486.579223632812	526.27197265625	1023.512390136719	1422.40234375	568.8377685546875	1055.374389648438	1160.75927734375	631.2801513671875	969.5732421875	1122.700561523438	593.2747802734375	1107.70458984375	896.9187622070312	514.07568359375	1141.54736328125	892.2225952148438	600.1969604492188	1082.791381835938	1086.644775390625	630.3359375	1123.785766601562	710.4442749023438	511.4844970703125	1146.823486328125	789.3883666992188	498.2844848632812	1169.478637695312	792.9507446289062	570.6472778320312	730.846435546875	1666.249633789062	485.9189147949219	841.042236328125	1687.33251953125	298.7369079589844	743.6761474609375	1674.53857421875	305.2504272460938	873.2357788085938	1683.308349609375	471.0967712402344	648.2266235351562	907.8119506835938	425.0226135253906	1019.794738769531	936.4640502929688	486.2159423828125	967.190673828125	963.5227661132812	373.5259399414062	737.3611450195312	957.2744140625	324.60498046875	715.1024169921875	456.3319091796875	440.6032104492188	674.9212646484375	601.2888793945312	433.4563903808594	557.7633056640625	125.8005142211914	806.8692016601562	612.1687622070312	301.2200317382812	625.1713256835938	754.661865234375	33.28899383544922	782.1006469726562	720.1419067382812	71.27961730957031	806.8447875976562	634.3566284179688	41.58402252197266	751.8787841796875	547.8244018554688	198.3978271484375	857.00634765625	1033.152465820312	532.0972900390625	323.6469421386719	1041.252563476562	786.3770751953125	418.6636352539062	1051.731811523438	33.52616119384766	376.4127502441406	1045.268798828125	402.4846801757812	320.8782958984375	1041.672485351562	35.36732864379883	141.1145324707031	1004.325988769531	42.85294342041016	200.3730163574219	1096.052490234375	31.11752510070801	232.5896148681641	998.3710327148438	34.53322601318359	423.8235778808594	
